<svg width="24" height="24" viewBox="0 0 24 24" fill="none" xmlns="http://www.w3.org/2000/svg">
<path d="M11.9999 1.86102C6.41266 1.86102 1.86694 6.40936 1.86694 12C1.86694 17.5909 6.41266 22.139 11.9999 22.139C17.5874 22.139 22.1333 17.5909 22.1333 12C22.1331 6.40936 17.5872 1.86102 11.9999 1.86102ZM11.9999 21.139C6.96367 21.139 2.86637 17.0394 2.86637 12C2.86637 6.96086 6.96367 2.86102 11.9999 2.86102C17.0362 2.86102 21.1338 6.96086 21.1338 12C21.1337 17.0394 17.0362 21.139 11.9999 21.139Z" fill="white"/>
<path d="M9.19819 9.85168H6.85321V15.974H9.19819V9.85168Z" fill="white"/>
<path d="M8.00237 8.87498C8.65783 8.87498 9.18918 8.38995 9.18918 7.79165C9.18918 7.19334 8.65783 6.70831 8.00237 6.70831C7.34691 6.70831 6.81555 7.19334 6.81555 7.79165C6.81555 8.38995 7.34691 8.87498 8.00237 8.87498Z" fill="white"/>
<path d="M15.0927 9.71332C14.6124 9.71332 14.2055 9.80082 13.871 9.97565C13.5369 10.1507 13.2067 10.4417 12.8801 10.849V9.85165H10.6964V15.974H13.0413V13.0338C13.0413 12.4765 13.1298 12.0905 13.3065 11.8752C13.4832 11.66 13.7134 11.5523 13.9978 11.5523C14.2551 11.5523 14.4549 11.6322 14.5971 11.7917C14.7394 11.9512 14.8101 12.223 14.8101 12.6075V15.974H17.1668V12.0828C17.1668 11.2757 16.9832 10.679 16.6163 10.2927C16.2498 9.90632 15.7416 9.71332 15.0927 9.71332Z" fill="white"/>
</svg>
