<svg width="24" height="24" viewBox="0 0 24 24" fill="none" xmlns="http://www.w3.org/2000/svg">
<path d="M12 24C5.4 24 0 18.6 0 12C0 5.4 5.4 0 12 0C18.6 0 24 5.4 24 12C24 18.6 18.6 24 12 24ZM12 1.2C6.06 1.2 1.2 6.06 1.2 12C1.2 17.94 6.06 22.8 12 22.8C17.94 22.8 22.8 17.94 22.8 12C22.8 6.06 17.94 1.2 12 1.2Z" fill="white"/>
<path fill-rule="evenodd" clip-rule="evenodd" d="M10.02 14.46L15.6 9.42C15.84 9.18 15.54 9.12 15.24 9.3L8.40005 13.62L5.46006 12.72C4.80006 12.54 4.80006 12.06 5.58006 11.76L17.16 7.32C17.7 7.08 18.18 7.44 18 8.28L16.02 17.58C15.9 18.24 15.48 18.42 14.94 18.12L11.94 15.9L10.5 17.28C10.32 17.46 10.08 17.46 10.08 17.28L10.02 14.46Z" fill="white"/>
</svg>
